#!OML:ASF F:\VICON\USERDATA\INSTALL\rory3\rory3.ASF
:FULLY-SPECIFIED
:DEGREES
172
root -0.552155 18.2372 -27.5795 4.68827 -0.326002 0.960118
lowerback 6.29272 3.13888 -4.52209
upperback -1.3284 3.93362 2.17146
thorax -5.38165 2.12723 4.368
lowerneck -14.2658 -5.93413 -15.2434
upperneck 24.9766 -6.6806 8.24924
head 11.29 -3.52097 4.64626
rclavicle -1.21756e-014 3.97569e-015
rhumerus -36.4253 -9.7952 -75.9548
rradius 32.3578
rwrist -13.1839
rhand -10.9258 19.2136
rfingers 7.12502
rthumb 15.092 -10.2162
lclavicle -1.21756e-014 3.97569e-015
lhumerus -41.172 13.0536 77.4073
lradius 29.9899
lwrist -7.98293
lhand 2.30285 32.1877
lfingers 7.12502
lthumb 27.7942 60.1524
rfemur 2.75667 -2.36789 17.7602
rtibia 46.0476
rfoot 16.1861 -12.3056
rtoes 25.0642
lfemur -25.0933 -1.96948 -21.3136
ltibia 26.134
lfoot -6.36438 -1.69953
ltoes 9.40049
173
root -0.533595 18.2443 -27.4551 4.57576 -0.217997 1.44935
lowerback 5.67749 3.06346 -4.79271
upperback -0.677992 3.82733 1.89163
thorax -4.33705 2.03948 4.28686
lowerneck -14.503 -5.99307 -14.9808
upperneck 24.3885 -6.79839 8.36252
head 11.122 -3.52016 4.60835
rclavicle -6.11263e-015 -3.18055e-015
rhumerus -35.3673 -10.1267 -76.3583
rradius 32.8714
rwrist -13.095
rhand -10.8629 19.118
rfingers 7.12502
rthumb 15.1526 -10.3072
lclavicle -6.11263e-015 -3.18055e-015
lhumerus -39.7786 12.552 77.7779
lradius 30.3669
lwrist -7.57484
lhand 2.15693 32.213
lfingers 7.12502
lthumb 27.6547 60.2002
rfemur 1.27769 -2.68641 17.1546
rtibia 48.6923
rfoot 17.7661 -13.3195
rtoes 26.999
lfemur -24.2969 -2.06952 -21.9555
ltibia 25.8673
lfoot -6.55703 -1.78743
ltoes 8.67965
174
root -0.514875 18.2493 -27.3314 4.47768 -0.0917212 2.04403
lowerback 5.84098 3.01981 -5.38683
upperback -0.574282 3.71233 1.71939
thorax -4.33585 1.99128 4.44844
lowerneck -14.5881 -6.02577 -14.8483
upperneck 24.3311 -6.83289 8.24933
head 11.1121 -3.53342 4.53514
rclavicle 3.27498e-014 3.97569e-014
rhumerus -35.2841 -10.0655 -76.4581
rradius 33.5382
rwrist -13.2108
rhand -10.6764 18.9588
rfingers 7.12502
rthumb 15.3322 -10.4528
lclavicle 3.27498e-014 3.97569e-014
lhumerus -39.2109 12.1668 77.9871
lradius 30.6603
lwrist -7.49253
lhand 1.9829 31.6575
lfingers 7.12502
lthumb 27.4882 59.6713
rfemur -0.138238 -3.01135 16.4236
rtibia 51.2419
rfoot 17.0193 -14.5704
rtoes 26.0822
lfemur -23.5101 -1.97338 -22.7592
ltibia 25.5488
lfoot -6.7974 -2.03628
ltoes 8.03128
175
root -0.495849 18.2484 -27.2013 4.39473 0.24345 2.61284
lowerback 5.93454 2.88559 -5.91941
upperback -0.522663 3.48334 1.55978
thorax -4.33034 1.88621 4.60362
lowerneck -14.4815 -5.99948 -14.7722
upperneck 24.2216 -6.81759 8.21489
head 11.0432 -3.52389 4.51074
rclavicle 2.08724e-015 6.36111e-015
rhumerus -34.9723 -10.2762 -76.4824
rradius 33.6079
rwrist -13.1159
rhand -10.7711 18.8692
rfingers 7.12502
rthumb 15.241 -10.5494
lclavicle 2.08724e-015 6.36111e-015
lhumerus -38.9284 11.6907 78.1532
lradius 31.1041
lwrist -7.32898
lhand 1.79043 31.144
lfingers 7.12502
lthumb 27.3041 59.1869
rfemur -1.27222 -3.44795 15.7417
rtibia 53.6631
rfoot 15.9648 -16.5088
rtoes 30.2517
lfemur -22.7919 -1.86535 -23.5534
ltibia 25.2551
lfoot -7.02112 -2.50326
ltoes 7.86084
176
root -0.481945 18.258 -27.0815 4.25577 0.225154 2.97467
lowerback 6.04622 2.86056 -6.36323
upperback -0.382265 3.41014 1.49177
thorax -4.26025 1.85314 4.78928
lowerneck -14.551 -5.95559 -14.7144
upperneck 24.1393 -6.75129 8.20005
head 11.0137 -3.48716 4.50272
rclavicle -7.60351e-015 -1.74931e-014
rhumerus -34.3522 -10.6724 -76.4627
rradius 33.4788
rwrist -12.9074
rhand -11.0484 18.9446
rfingers 7.12502
rthumb 14.9739 -10.494
lclavicle -7.60351e-015 -1.74931e-014
lhumerus -38.6023 11.2132 78.408
lradius 31.7211
lwrist -6.97728
lhand 1.36894 31.7677
lfingers 7.12502
lthumb 26.9009 59.8734
rfemur -2.86385 -3.78814 15.3356
rtibia 55.9293
rfoot 14.569 -15.9154
rtoes 22.5646
lfemur -22.0594 -1.67954 -24.0625
ltibia 25.0282
lfoot -7.2376 -2.72526
ltoes 8.18379
177
root -0.466902 18.2687 -26.9632 4.18836 0.361683 3.12528
lowerback 6.24697 2.79413 -6.53939
upperback -0.356444 3.29467 1.47397
thorax -4.34054 1.80113 4.87521
lowerneck -14.6839 -5.90491 -14.7283
upperneck 24.2454 -6.67841 8.26806
head 11.0721 -3.44661 4.5428
rclavicle -9.79014e-015 -1.90833e-014
rhumerus -34.1082 -10.9904 -76.3779
rradius 33.6775
rwrist -13.1365
rhand -10.9037 19.056
rfingers 7.12502
rthumb 15.1133 -10.3722
lclavicle -9.79014e-015 -1.90833e-014
lhumerus -38.3476 10.642 78.6423
lradius 32.3005
lwrist -6.45652
lhand 0.905607 32.3632
lfingers 7.12502
lthumb 26.4575 60.5364
rfemur -4.37329 -4.17793 15.1966
rtibia 57.9955
rfoot 13.1151 -15.2878
rtoes 19.5635
lfemur -21.4842 -1.60291 -24.3194
ltibia 24.8963
lfoot -7.48639 -2.96463
ltoes 8.66324
178
root -0.452608 18.2765 -26.8475 4.00064 0.454894 3.14037
lowerback 6.74699 2.74745 -6.60294
upperback -0.480611 3.19181 1.50333
thorax -4.745 1.76787 4.93106
lowerneck -14.3259 -5.82091 -14.7227
upperneck 24.1941 -6.6081 8.24727
head 10.9719 -3.42375 4.54882
rclavicle 5.28767e-014 -1.19271e-014
rhumerus -34.3588 -11.1746 -76.2095
rradius 34.1597
rwrist -13.7075
rhand -10.3804 18.867
rfingers 7.12502
rthumb 15.6173 -10.5226
lclavicle 5.28767e-014 -1.19271e-014
lhumerus -38.3552 10.139 78.7548
lradius 32.7702
lwrist -6.03416
lhand 0.736115 32.3758
lfingers 7.12502
lthumb 26.2953 60.5734
rfemur -5.68549 -4.48123 15.2132
rtibia 59.8828
rfoot 11.763 -14.5063
rtoes 18.9504
lfemur -20.7999 -1.46917 -24.4157
ltibia 24.8156
lfoot -7.76636 -3.18848
ltoes 9.29595
179
root -0.431529 18.2789 -26.7165 3.74977 0.513667 3.26131
lowerback 6.89301 2.66554 -6.72555
upperback -0.354235 3.06673 1.54241
thorax -4.68642 1.70392 5.05433
lowerneck -14.2197 -5.79947 -14.7188
upperneck 24.0777 -6.54627 8.08622
head 10.8945 -3.41361 4.49539
rclavicle -1.54555e-014 3.18055e-015
rhumerus -34.223 -11.3669 -76.074
rradius 34.5913
rwrist -14.0207
rhand -10.1817 18.2381
rfingers 7.12502
rthumb 15.8087 -11.1364
lclavicle -1.54555e-014 3.18055e-015
lhumerus -38.0261 10.1339 78.8373
lradius 33.0683
lwrist -6.01214
lhand 0.675745 32.2722
lfingers 7.12502
lthumb 26.2375 60.4784
rfemur -6.7859 -4.86728 14.9772
rtibia 61.5565
rfoot 10.8094 -13.6285
rtoes 20.4275
lfemur -20.0001 -1.37643 -24.6834
ltibia 24.834
lfoot -8.22388 -3.25078
ltoes 9.25113
180
root -0.410222 18.2792 -26.5885 3.63227 0.549679 3.3948
lowerback 6.83166 2.60059 -6.81085
upperback -0.161616 2.98132 1.53655
thorax -4.44139 1.64988 5.11327
lowerneck -14.4095 -5.79048 -14.8121
upperneck 24.0801 -6.50218 8.16995
head 10.9333 -3.38856 4.5465
rclavicle -2.73329e-014 1.27222e-014
rhumerus -33.7919 -11.4801 -76.1284
rradius 34.7651
rwrist -14.5624
rhand -10.2105 17.4662
rfingers 7.12502
rthumb 15.7809 -11.9105
lclavicle -2.73329e-014 1.27222e-014
lhumerus -37.4977 10.1192 78.9196
lradius 33.3814
lwrist -6.00676
lhand 0.716808 32.1977
lfingers 7.12502
lthumb 26.2768 60.398
rfemur -8.07654 -5.20185 14.7641
rtibia 63.1022
rfoot 10.1161 -12.8519
rtoes 22.7975
lfemur -19.4472 -1.37235 -24.9577
ltibia 24.9128
lfoot -8.78643 -3.07879
ltoes 7.93226
181
root -0.393587 18.2774 -26.4653 3.60201 0.78589 3.63692
lowerback 6.93176 2.51911 -6.98704
upperback -0.177521 2.84652 1.44399
thorax -4.49965 1.58806 5.12777
lowerneck -14.2753 -5.76003 -14.7855
upperneck 24.0918 -6.50575 8.23769
head 10.9124 -3.3834 4.56937
rclavicle 5.96354e-015 2.70347e-014
rhumerus -33.7338 -11.5127 -76.2644
rradius 34.7977
rwrist -15.5435
rhand -10.1838 17.1602
rfingers 7.12502
rthumb 15.8067 -12.2145
lclavicle 5.96354e-015 2.70347e-014
lhumerus -37.2034 9.77125 78.9566
lradius 33.7679
lwrist -5.84304
lhand 0.745653 32.322
lfingers 7.12502
lthumb 26.3044 60.5181
rfemur -9.37376 -5.64288 14.4955
rtibia 64.5109
rfoot 7.95743 -11.8707
rtoes 22.2768
lfemur -19.0175 -1.38786 -25.3361
ltibia 25.004
lfoot -9.21651 -3.1169
ltoes 6.79343
